<svg xmlns="http://www.w3.org/2000/svg" viewBox="0 0 141.98 141.98"><defs><style>.cls-1{fill:#752c7f;}.cls-2{fill:#fff;}</style></defs><g id="Layer_2" data-name="Layer 2"><g id="Graphic_Elements" data-name="Graphic Elements"><path class="cls-1" d="M142,71A71,71,0,1,0,59.9,141.12V91.51h-18V71h18V55.35c0-17.79,10.6-27.62,26.81-27.62a108.83,108.83,0,0,1,15.89,1.39V46.59H93.65c-8.82,0-11.57,5.47-11.57,11.08V71h19.69L98.62,91.51H82.08v49.61A71,71,0,0,0,142,71Z"/><path class="cls-2" d="M98.62,91.51,101.77,71H82.08V57.67c0-5.61,2.75-11.08,11.57-11.08h8.95V29.12a108.83,108.83,0,0,0-15.89-1.39c-16.21,0-26.81,9.83-26.81,27.62V71h-18V91.51h18v49.61a71.93,71.93,0,0,0,22.18,0V91.51Z"/></g></g></svg>