<svg xmlns="http://www.w3.org/2000/svg" xmlns:xlink="http://www.w3.org/1999/xlink" viewBox="0 0 152.5 152.5"><defs><style>.cls-1{fill:#752c7f;}.cls-2{clip-path:url(#clip-path);}.cls-3{fill:#fff;}</style><clipPath id="clip-path" transform="translate(5.26 5.26)"><circle id="SVGID" class="cls-1" cx="70.99" cy="70.99" r="70.99"/></clipPath></defs><g id="Layer_2" data-name="Layer 2"><g id="Graphic_Elements" data-name="Graphic Elements"><circle id="SVGID-2" data-name="SVGID" class="cls-1" cx="76.25" cy="76.25" r="70.99"/><g class="cls-2"><rect id="SVGID-3" data-name="SVGID" class="cls-1" width="152.5" height="152.5"/></g><path class="cls-3" d="M71,34.35c11.94,0,13.35,0,18.06.26a24.51,24.51,0,0,1,8.3,1.54,14.76,14.76,0,0,1,8.48,8.48,24.26,24.26,0,0,1,1.54,8.3c.22,4.71.26,6.13.26,18.06s0,13.35-.26,18.06a24.26,24.26,0,0,1-1.54,8.3,14.76,14.76,0,0,1-8.48,8.48,24.26,24.26,0,0,1-8.3,1.54c-4.71.22-6.12.26-18.06.26s-13.35,0-18.06-.26a24.26,24.26,0,0,1-8.3-1.54,14.76,14.76,0,0,1-8.48-8.48,24.51,24.51,0,0,1-1.54-8.3c-.22-4.71-.26-6.12-.26-18.06s0-13.35.26-18.06a24.51,24.51,0,0,1,1.54-8.3,14.76,14.76,0,0,1,8.48-8.48,24.51,24.51,0,0,1,8.3-1.54c4.71-.22,6.13-.26,18.06-.26m0-8.06c-12.14,0-13.66.05-18.43.27a32.72,32.72,0,0,0-10.85,2.08A22.78,22.78,0,0,0,28.64,41.71a32.77,32.77,0,0,0-2.08,10.85c-.22,4.77-.27,6.29-.27,18.43s.05,13.66.27,18.43a32.72,32.72,0,0,0,2.08,10.85,22.78,22.78,0,0,0,13.07,13.07,32.72,32.72,0,0,0,10.85,2.08c4.77.22,6.29.27,18.43.27s13.66,0,18.43-.27a32.72,32.72,0,0,0,10.85-2.08,22.78,22.78,0,0,0,13.07-13.07,32.72,32.72,0,0,0,2.08-10.85c.22-4.77.27-6.29.27-18.43s0-13.66-.27-18.43a32.77,32.77,0,0,0-2.08-10.85,22.78,22.78,0,0,0-13.07-13.07,32.72,32.72,0,0,0-10.85-2.08c-4.77-.22-6.29-.27-18.43-.27Z" transform="translate(5.26 5.26)"/><path class="cls-3" d="M71,48A22.95,22.95,0,1,0,93.94,71,22.94,22.94,0,0,0,71,48Zm0,37.85A14.9,14.9,0,1,1,85.89,71,14.9,14.9,0,0,1,71,85.89Z" transform="translate(5.26 5.26)"/><circle class="cls-3" cx="100.11" cy="52.39" r="5.36"/></g></g></svg>