<svg xmlns="http://www.w3.org/2000/svg" viewBox="0 0 141.98 141.98"><defs><style>.cls-1{fill:#752c7f;}.cls-2{fill:#fefefe;}</style></defs><g id="Layer_2" data-name="Layer 2"><g id="Graphic_Elements" data-name="Graphic Elements"><circle class="cls-1" cx="70.99" cy="70.99" r="70.99"/><path class="cls-2" d="M76.48,61.31c1.17-1.31,2.13-2.64,3.33-3.77a18.24,18.24,0,0,1,13.12-5.18,30.22,30.22,0,0,1,8.25,1c6.16,1.79,9.74,6,11.45,12a50.07,50.07,0,0,1,1.52,13.79c0,9.81,0,19.62,0,29.42,0,.92-.26,1.16-1.16,1.15q-7.58-.06-15.16,0c-.89,0-1.08-.27-1.08-1.11q0-14,0-28a25.47,25.47,0,0,0-.81-7c-1.21-4.19-4.21-6.33-8.6-6.09-6,.31-9.1,3.28-9.87,9.37a35.64,35.64,0,0,0-.27,4.38c0,9.07,0,18.15,0,27.22,0,.91-.23,1.17-1.15,1.17-5.09,0-10.18,0-15.27,0-.81,0-1-.21-1-1q0-26.94,0-53.9c0-.89.29-1.09,1.13-1.09q7.26.06,14.5,0c.89,0,1.12.28,1.1,1.12C76.45,57,76.48,59.16,76.48,61.31Z"/><path class="cls-2" d="M48.8,81.84c0,8.89,0,17.78,0,26.66,0,1-.24,1.29-1.26,1.28-5.05-.06-10.1,0-15.15,0-.81,0-1-.19-1-1q0-27,0-54c0-.75.18-1,1-1,5.13,0,10.25,0,15.37,0,1,0,1.12.37,1.12,1.21C48.79,63.92,48.8,72.88,48.8,81.84Z"/><path class="cls-2" d="M50.2,35.91a10.09,10.09,0,1,1-10.08-10A10.13,10.13,0,0,1,50.2,35.91Z"/></g></g></svg>