<svg xmlns="http://www.w3.org/2000/svg" viewBox="0 0 141.98 141.98"><defs><style>.cls-1{fill:#752c7f;}.cls-2{fill:#c8daea;}.cls-3{fill:#a9c6d8;}.cls-4{fill:#fff;}</style></defs><g id="Layer_2" data-name="Layer 2"><g id="Graphic_Elements" data-name="Graphic Elements"><circle class="cls-1" cx="70.99" cy="70.99" r="70.99"/><path class="cls-2" d="M48.05,76.18l8.43,23.31s1.05,2.18,2.18,2.18,17.9-17.44,17.9-17.44l18.65-36-46.86,22Z"/><path class="cls-3" d="M59.22,82.16,57.6,99.34s-.67,5.27,4.59,0S72.49,90,72.49,90Z"/><path class="cls-4" d="M48.21,77,30.88,71.37s-2.07-.84-1.4-2.75c.14-.39.41-.73,1.24-1.3,3.84-2.68,71.05-26.84,71.05-26.84a5.7,5.7,0,0,1,3-.21,1.64,1.64,0,0,1,1.12,1.22,5.42,5.42,0,0,1,.15,1.52c0,.45-.06.86-.1,1.51-.41,6.6-12.66,55.9-12.66,55.9s-.73,2.88-3.36,3a4.81,4.81,0,0,1-3.51-1.35c-5.15-4.43-23-16.4-26.9-19a.74.74,0,0,1-.32-.53c-.06-.27.24-.62.24-.62s31-27.57,31.84-30.46c.07-.22-.17-.33-.5-.24C88.73,51.92,53,74.47,49.08,77A1.8,1.8,0,0,1,48.21,77Z"/></g></g></svg>