<svg xmlns="http://www.w3.org/2000/svg" viewBox="0 0 141.98 141.98"><defs><style>.cls-1{fill:#752c7f;}.cls-2{fill:#fff;}.cls-3{fill:#cb1c54;}.cls-4{fill:#6abac5;}</style></defs><g id="Layer_2" data-name="Layer 2"><g id="Graphic_Elements" data-name="Graphic Elements"><circle class="cls-1" cx="70.99" cy="70.99" r="70.99"/><path class="cls-2" d="M52,99.48l.26.23c.78.57,1.35,1.36,2.11,2a13.58,13.58,0,0,0,22.12-8.9,9,9,0,0,0,0-1V28c0-1.44,0-1.44,1.42-1.44h9.68a1.47,1.47,0,0,1,.9.14l.06,0a1.11,1.11,0,0,1,.24.58,22.3,22.3,0,0,0,9,13.73c.29.22.54.49.82.72l.62.52a14.25,14.25,0,0,1,2,1.68,22.34,22.34,0,0,0,8.85,4.53c.29.07.62.07.83.34l.06.05a.94.94,0,0,1,.16.71V60.86c0,.85-.12.9-1,.9a36.27,36.27,0,0,1-8.11-1A38.74,38.74,0,0,1,89.32,55.3c-.2-.14-.42-.43-.64-.33s-.13.49-.13.74c0,10.54,0,21.08,0,31.62a30.15,30.15,0,0,1-26.66,30,29.88,29.88,0,0,1-17.16-3,15.93,15.93,0,0,1-2.5-1.53l-.74-.66a20.54,20.54,0,0,1-4.39-5.59A30.4,30.4,0,0,1,33,90.05,30.12,30.12,0,0,1,53.59,62.82a27.2,27.2,0,0,1,6.92-1.41,9.79,9.79,0,0,1,1.32-.11.94.94,0,0,1,.61.14l.06,0a1.23,1.23,0,0,1,.1.68v11.4c0,.13,0,.26,0,.4,0,.38-.22.51-.58.4a14.13,14.13,0,0,0-3.18-.48A12,12,0,0,0,54,74.6c-5.22,1.93-8.39,5.67-9,11.18s1.49,9.77,6,12.9C51.3,98.94,51.69,99.19,52,99.48Z"/><path class="cls-3" d="M42.21,112.73c.2-.06.31.1.46.19a30,30,0,0,0,11,4,28.39,28.39,0,0,0,6,.35A30,30,0,0,0,87.39,94.93a29.11,29.11,0,0,0,.91-6c.06-1.18.06-2.35.06-3.52V54.58c.26-.07.38.13.53.23a38.41,38.41,0,0,0,11.62,5.41,39.63,39.63,0,0,0,7,1.26c1,.09,2,.08,3,.15.43,0,.44,0,.45-.44V49.55c0-.21,0-.42,0-.63.89.1,1.77.29,2.67.36a15.65,15.65,0,0,0,1.67.07c.28,0,.39.09.36.37,0,.11,0,.23,0,.34v15c0,.43,0,.44-.46.44a37.15,37.15,0,0,1-4.6-.31,38.77,38.77,0,0,1-9.06-2.31,39.21,39.21,0,0,1-7.92-4.19l-.55-.36v.69q0,16.11,0,32.21a29.29,29.29,0,0,1-4.53,15.89,29.59,29.59,0,0,1-15.31,12.33A29.07,29.07,0,0,1,61,121.17a29.71,29.71,0,0,1-18.41-8C42.46,113,42.34,112.87,42.21,112.73Z"/><path class="cls-4" d="M88.56,26.73c-.21,0-.42,0-.63,0H77.55c-.8,0-.8,0-.8.78q0,31.68,0,63.37a13.69,13.69,0,0,1-.57,4.32,13.19,13.19,0,0,1-10,9.36c-5.44,1.24-10.05-.42-13.73-4.64a1.94,1.94,0,0,1-.15-.24,18.29,18.29,0,0,0,3.21,1.06A13.74,13.74,0,0,0,71.86,89.55,13.27,13.27,0,0,0,72,87.2q0-31.76,0-63.5c0-1-.14-.86.84-.86h15c.5,0,.51,0,.51.52A16.64,16.64,0,0,0,88.56,26.73Z"/><path class="cls-4" d="M62.44,61.44A31,31,0,0,0,53.7,63,29.82,29.82,0,0,0,33.22,89.23a29.75,29.75,0,0,0,8.12,22.65c0,.06.08.13.13.19A7,7,0,0,1,39.91,111,29.85,29.85,0,0,1,28.52,90.12a30.21,30.21,0,0,1-.06-4.66A29.5,29.5,0,0,1,31,75.19,29.94,29.94,0,0,1,56.13,57.62a30.82,30.82,0,0,1,5.92.14c.26,0,.42.08.41.4C62.44,59.25,62.44,60.35,62.44,61.44Z"/><path class="cls-3" d="M52,99.48a11.2,11.2,0,0,1-3.18-2.23,13.29,13.29,0,0,1-4.14-8.33A13.69,13.69,0,0,1,62,74.2a.82.82,0,0,0,.44.06,1.49,1.49,0,0,0,0-.63V62.11c0-.21,0-.42,0-.63a25.13,25.13,0,0,1,4.42.2c.24,0,.3.13.29.33V77.62a1,1,0,0,1-.07.59c-.67-.13-1.33-.33-2-.43a13.42,13.42,0,0,0-10.59,2.83,13.12,13.12,0,0,0-5,8.41A13.48,13.48,0,0,0,51.8,99.1C51.89,99.22,52,99.35,52,99.48Z"/><path class="cls-3" d="M98.66,41.8a19.47,19.47,0,0,1-4-3.21,22.48,22.48,0,0,1-6.07-11.7.48.48,0,0,1,0-.12c1.38-.08,2.76,0,4.14,0,.24,0,.35.09.33.33a2.8,2.8,0,0,0,0,.29,20.76,20.76,0,0,0,3,10.73,21.57,21.57,0,0,0,2.36,3.33C98.51,41.54,98.64,41.63,98.66,41.8Z"/><path class="cls-4" d="M110.92,48.87a22.36,22.36,0,0,1-10.39-5.29,7.45,7.45,0,0,1-1.25-1.26.73.73,0,0,1,.37.14,22.81,22.81,0,0,0,7.64,2.71,18.94,18.94,0,0,0,3.2.28c.45,0,.46,0,.46.44C111,46.88,110.93,47.88,110.92,48.87Z"/></g></g></svg>